# xmcd CD database file
#
# Track frame offsets:
#	150
#	18663
#	35777
#	49652
#	67802
#	86539
#
# Disc length: 1356 seconds
#
# Revision: 2
# Processed by: cddbd v1.5.2PL0 Copyright (c) Steve Scherf et al.
# Submitted via: CDex 1.51
#
DISCID=47054a06
DTITLE=Smoke Fairies - Through Low Light and Trees [Reissued 2011 - Disc 2]
DYEAR=2010
DGENRE=Folk
TTITLE0=Dancing Light
TTITLE1=Storm Song (alt. version)
TTITLE2=Strange Moon Rising (alt. version)
TTITLE3=Requiem
TTITLE4=Devil in My Mind (alt. version)
TTITLE5=Human Concerns
EXTD=YEAR: 2010
EXTT0=
EXTT1=
EXTT2=
EXTT3=
EXTT4=
EXTT5=
PLAYORDER=
